<?xml version="1.0" encoding="UTF-8"?>
<svg xmlns="http://www.w3.org/2000/svg" width="32" height="32" viewBox="0 0 32 32">
    <path fill="#43853d" d="M15.998 28.895a1.687 1.687 0 01-.843-.223l-2.684-1.589c-.401-.223-.205-.303-.072-.349.535-.186.643-.227 1.214-.553.059-.033.137-.021.197.015l2.062 1.224a.255.255 0 00.246 0l8.043-4.642a.252.252 0 00.122-.216v-9.276a.253.253 0 00-.122-.217l-8.043-4.642a.253.253 0 00-.246 0l-8.043 4.642a.252.252 0 00-.123.217v9.276c0 .089.048.171.123.216l2.2 1.272c1.197.598 1.929-.106 1.929-.816v-9.156a.23.23 0 01.232-.229h1.019a.23.23 0 01.232.229v9.156c0 1.599-.871 2.516-2.39 2.516-.467 0-.834 0-1.858-.504l-2.108-1.215a1.687 1.687 0 01-.843-1.459V13.38c0-.6.322-1.16.843-1.459l8.043-4.642a1.751 1.751 0 011.688 0l8.043 4.642c.521.299.843.859.843 1.459v9.276c0 .6-.322 1.16-.843 1.459l-8.043 4.642a1.689 1.689 0 01-.843.223zm2.453-6.379c-3.524 0-4.255-1.618-4.255-2.972a.23.23 0 01.232-.229h1.039a.23.23 0 01.229.196c.155 1.048.617 1.576 2.754 1.576 1.695 0 2.419-.383 2.419-1.281 0-.518-.205-.901-2.839-1.16-2.201-.216-3.562-.704-3.562-2.467 0-1.625 1.371-2.593 3.667-2.593 2.577 0 3.851.894 4.014 2.814a.23.23 0 01-.232.251h-1.047a.23.23 0 01-.224-.181c-.248-1.1-.854-1.449-2.511-1.449-1.849 0-2.065.643-2.065 1.125 0 .583.254.754 2.753 1.083 2.477.307 3.644.742 3.644 2.51 0 1.751-1.456 2.769-3.995 2.769z"/>
</svg>